<?xml version="1.0" standalone="no"?>
<!DOCTYPE svg PUBLIC "-//W3C//DTD SVG 20010904//EN"
 "http://www.w3.org/TR/2001/REC-SVG-20010904/DTD/svg10.dtd">
<svg version="1.0" xmlns="http://www.w3.org/2000/svg"
 width="2702.000000pt" height="2702.000000pt" viewBox="0 0 2702.000000 2702.000000"
 preserveAspectRatio="xMidYMid meet">
<metadata>
Created by potrace 1.14, written by Peter Selinger 2001-2017
</metadata>
<g transform="translate(0.000000,2702.000000) scale(0.100000,-0.100000)"
fill="#000000" stroke="none">
<path d="M13295 24146 c-9 -13 -24 -46 -34 -73 -27 -70 -60 -155 -71 -178 -5
-11 -12 -31 -16 -45 -4 -14 -17 -48 -30 -77 -13 -28 -24 -57 -24 -62 0 -6 -4
-19 -10 -29 -11 -19 -75 -178 -145 -357 -25 -66 -53 -138 -62 -160 -18 -47
-25 -64 -51 -125 -11 -25 -32 -79 -47 -120 -16 -41 -34 -86 -42 -100 -7 -14
-13 -32 -13 -40 0 -9 -4 -20 -8 -25 -5 -6 -19 -39 -32 -75 -13 -36 -26 -69
-30 -75 -4 -5 -15 -32 -25 -60 -9 -27 -23 -63 -30 -80 -7 -16 -34 -84 -60
-150 -26 -66 -51 -129 -55 -140 -11 -25 -54 -134 -115 -290 -26 -66 -51 -129
-55 -140 -8 -17 -61 -151 -147 -370 -20 -50 -42 -104 -53 -130 -5 -11 -43
-108 -85 -215 -42 -107 -83 -209 -91 -227 -8 -17 -14 -36 -14 -42 0 -6 -4 -19
-10 -29 -12 -22 -28 -61 -85 -207 -26 -66 -53 -134 -61 -152 -8 -17 -14 -36
-14 -42 0 -6 -4 -19 -10 -29 -5 -9 -51 -120 -100 -247 -50 -126 -95 -238 -100
-247 -6 -10 -10 -23 -10 -28 0 -6 -8 -30 -18 -53 -11 -23 -38 -91 -62 -152
-24 -60 -47 -119 -51 -130 -5 -11 -24 -60 -44 -110 -20 -49 -40 -99 -45 -110
-5 -11 -30 -74 -56 -140 -25 -66 -52 -134 -60 -152 -8 -17 -14 -36 -14 -42 0
-6 -4 -19 -10 -29 -12 -23 -30 -66 -85 -207 -46 -119 -99 -251 -116 -290 -5
-11 -18 -45 -29 -75 -11 -30 -25 -64 -30 -75 -5 -11 -30 -74 -55 -140 -26 -66
-50 -129 -55 -140 -4 -11 -18 -45 -30 -75 -11 -30 -25 -64 -30 -75 -4 -11 -29
-74 -55 -140 -25 -66 -50 -129 -55 -140 -5 -11 -19 -45 -30 -75 -11 -30 -25
-64 -30 -75 -5 -11 -23 -56 -41 -100 -17 -44 -37 -94 -45 -112 -8 -17 -14 -37
-14 -45 0 -8 -4 -18 -8 -24 -5 -5 -17 -31 -27 -59 -9 -27 -23 -63 -31 -80 -11
-25 -76 -189 -151 -380 -32 -80 -44 -110 -53 -127 -6 -10 -10 -23 -10 -29 0
-6 -7 -25 -15 -42 -7 -18 -35 -86 -60 -152 -26 -66 -50 -129 -55 -140 -8 -18
-83 -206 -161 -405 -16 -41 -34 -83 -39 -92 -6 -10 -10 -23 -10 -29 0 -6 -7
-25 -15 -42 -8 -18 -28 -68 -45 -112 -17 -44 -37 -93 -44 -110 -8 -16 -22 -52
-31 -80 -10 -27 -21 -54 -25 -60 -4 -5 -15 -32 -25 -60 -9 -27 -23 -63 -31
-80 -7 -16 -34 -84 -59 -150 -26 -66 -53 -134 -61 -152 -8 -17 -14 -36 -14
-42 0 -6 -4 -19 -10 -29 -14 -26 -33 -72 -115 -282 -42 -107 -80 -204 -85
-215 -5 -11 -19 -45 -30 -75 -11 -30 -24 -64 -29 -75 -5 -11 -16 -40 -26 -65
-10 -25 -21 -54 -26 -65 -4 -11 -18 -45 -29 -75 -12 -30 -26 -64 -31 -75 -5
-11 -18 -45 -29 -75 -11 -30 -25 -64 -30 -75 -5 -11 -44 -108 -85 -215 -42
-107 -80 -204 -85 -215 -5 -11 -19 -45 -30 -75 -11 -30 -24 -64 -29 -75 -5
-11 -17 -40 -26 -65 -32 -82 -46 -115 -55 -132 -6 -10 -10 -23 -10 -30 0 -7
-6 -24 -13 -38 -7 -14 -21 -47 -31 -75 -10 -27 -24 -63 -31 -80 -22 -54 -77
-189 -92 -230 -9 -22 -22 -54 -29 -72 -8 -17 -14 -38 -14 -47 0 -9 -4 -16 -10
-16 -5 0 -10 -7 -10 -16 0 -9 -6 -30 -14 -47 -8 -18 -28 -68 -45 -112 -18 -44
-36 -89 -41 -100 -5 -11 -19 -45 -30 -75 -11 -30 -25 -64 -30 -75 -5 -11 -43
-108 -85 -215 -41 -107 -80 -204 -85 -215 -5 -11 -30 -74 -55 -140 -25 -66
-50 -129 -55 -140 -5 -11 -19 -45 -30 -75 -12 -30 -26 -64 -31 -75 -4 -11 -42
-108 -84 -215 -42 -107 -80 -204 -85 -215 -5 -11 -18 -42 -30 -70 -12 -27 -25
-59 -30 -70 -5 -11 -30 -74 -55 -140 -63 -163 -134 -344 -150 -380 -7 -16 -38
-95 -69 -175 -32 -80 -61 -154 -66 -165 -5 -11 -30 -74 -55 -140 -25 -66 -52
-133 -59 -150 -7 -16 -20 -48 -29 -70 -34 -89 -79 -202 -91 -230 -8 -16 -26
-64 -40 -105 -28 -77 -49 -132 -71 -185 -7 -16 -21 -52 -30 -80 -10 -27 -21
-54 -25 -60 -4 -5 -15 -32 -25 -60 -9 -27 -23 -63 -30 -80 -7 -16 -27 -66 -45
-110 -17 -44 -38 -94 -46 -112 -8 -17 -14 -38 -14 -46 0 -9 -4 -18 -9 -22 -5
-3 -13 -20 -17 -37 -3 -18 -10 -39 -15 -48 -11 -20 -31 -68 -69 -165 -18 -44
-35 -89 -40 -100 -5 -11 -19 -47 -31 -80 -13 -33 -27 -64 -31 -70 -4 -5 -8
-15 -8 -23 0 -8 -6 -28 -14 -45 -14 -31 -45 -108 -106 -264 -17 -43 -35 -86
-40 -95 -6 -10 -10 -23 -10 -28 0 -6 -8 -30 -19 -53 -10 -23 -44 -107 -75
-187 -31 -80 -61 -154 -66 -165 -5 -11 -26 -63 -45 -115 -19 -52 -39 -104 -44
-115 -5 -11 -23 -56 -41 -100 -18 -44 -39 -94 -46 -112 -8 -17 -14 -36 -14
-42 0 -6 -4 -19 -10 -29 -5 -9 -44 -105 -86 -212 -42 -107 -82 -209 -90 -227
-8 -17 -14 -36 -14 -42 0 -6 -4 -19 -10 -29 -17 -31 -50 -111 -50 -122 0 -5
-4 -18 -9 -28 -5 -9 -24 -53 -41 -97 -18 -44 -36 -89 -41 -100 -4 -11 -42
-108 -84 -215 -120 -307 -132 -338 -145 -362 -6 -10 -10 -23 -10 -29 0 -6 -6
-25 -14 -42 -8 -18 -35 -86 -61 -152 -25 -66 -51 -130 -56 -143 -13 -33 -11
-52 6 -52 13 0 159 162 308 344 32 39 62 73 65 76 7 5 74 81 199 226 10 12 38
44 63 71 25 28 54 61 65 74 30 35 288 323 296 329 3 3 29 32 59 65 52 59 236
258 295 320 17 18 57 61 89 96 251 270 1044 1068 1316 1324 114 107 396 366
506 464 27 25 72 65 99 90 120 109 442 387 564 486 47 39 140 115 207 170 66
55 138 114 160 131 160 128 198 158 269 213 580 448 1180 867 1687 1179 57 35
150 92 206 128 57 35 106 64 108 64 2 0 48 26 101 58 131 78 389 222 398 222
4 0 31 14 59 32 93 57 812 416 976 486 42 18 119 52 165 72 11 5 47 21 80 36
33 14 132 55 220 91 88 35 169 68 180 73 11 5 45 19 75 30 30 11 64 25 75 29
11 5 34 14 50 19 17 6 82 29 145 52 229 83 339 120 545 185 83 26 169 53 193
61 23 8 51 14 62 14 10 0 21 4 24 9 3 5 26 12 51 15 24 4 47 11 50 17 4 5 16
9 29 9 12 0 42 6 67 14 24 7 73 21 109 31 36 9 88 23 115 30 28 7 113 27 190
45 77 17 156 35 175 40 32 9 266 54 440 85 41 7 125 21 185 30 61 8 135 20
165 25 30 5 87 12 125 15 39 3 90 10 115 15 108 22 697 59 1070 66 283 6 910
-14 1020 -32 19 -3 105 -12 190 -20 178 -16 341 -35 485 -58 55 -9 127 -20
160 -25 107 -17 344 -61 465 -87 196 -42 410 -93 500 -119 30 -9 71 -20 90
-25 19 -5 60 -16 90 -25 30 -9 73 -21 95 -27 22 -5 49 -13 60 -18 11 -4 110
-37 220 -73 231 -76 333 -112 357 -127 10 -5 23 -10 29 -10 6 0 25 -6 42 -14
18 -8 68 -29 112 -46 44 -18 94 -38 110 -45 17 -7 41 -18 55 -23 153 -65 165
-70 405 -188 116 -57 255 -128 310 -159 55 -31 112 -61 128 -68 15 -6 27 -15
27 -19 0 -4 5 -8 10 -8 11 0 283 -164 405 -243 243 -159 524 -368 740 -551 33
-28 70 -60 84 -71 23 -19 145 -131 202 -185 72 -69 110 -100 124 -100 25 0 17
25 -27 81 -95 123 -446 559 -457 569 -4 3 -21 23 -40 45 -260 306 -769 827
-1095 1120 -112 101 -120 108 -260 226 -16 13 -34 29 -40 34 -6 6 -33 28 -61
50 -27 22 -52 42 -55 45 -3 3 -34 28 -70 55 -36 27 -76 60 -90 72 -40 35 -405
302 -510 373 -52 36 -97 67 -100 70 -3 4 -41 28 -85 55 -44 27 -82 52 -85 55
-3 4 -34 24 -70 45 -36 21 -94 57 -130 80 -113 72 -291 175 -415 240 -44 23
-105 56 -135 72 -124 67 -522 263 -535 263 -2 0 -32 13 -67 28 -35 16 -99 44
-143 62 -44 18 -96 39 -115 47 -61 25 -74 30 -115 46 -68 25 -129 49 -150 58
-11 5 -49 18 -85 29 -36 12 -74 25 -85 30 -31 13 -251 85 -335 110 -41 12 -86
26 -100 31 -14 4 -68 20 -120 33 -52 14 -131 35 -175 46 -147 39 -190 49 -265
65 -41 9 -93 20 -115 25 -113 27 -439 85 -635 115 -206 31 -258 37 -340 45
-47 4 -130 13 -185 19 -55 5 -152 15 -215 21 -145 14 -939 40 -1011 34 -30 -2
-191 -9 -358 -14 -313 -10 -470 -20 -696 -46 -71 -8 -146 -14 -165 -14 -19 0
-82 -7 -140 -15 -58 -8 -175 -24 -260 -36 -264 -36 -438 -63 -600 -93 -41 -8
-102 -19 -135 -25 -33 -6 -103 -20 -155 -31 -52 -12 -117 -25 -145 -30 -64
-11 -141 -27 -185 -39 -19 -6 -80 -20 -135 -32 -55 -12 -134 -30 -175 -41 -41
-11 -93 -23 -115 -28 -22 -5 -76 -18 -120 -30 -44 -12 -119 -32 -167 -44 -48
-12 -90 -25 -94 -29 -4 -4 -15 -7 -25 -7 -9 0 -39 -7 -65 -14 -153 -46 -188
-56 -194 -56 -8 0 24 119 85 310 15 47 33 108 40 135 7 28 18 64 23 80 5 17
17 57 27 90 9 33 20 69 24 80 5 11 15 45 24 75 9 30 27 91 40 135 13 44 34
112 45 150 12 39 35 114 52 169 16 54 30 105 30 113 0 7 4 21 9 31 6 9 20 51
31 92 12 41 25 86 30 100 4 14 16 52 25 85 10 33 24 78 31 100 7 22 20 67 29
100 9 33 21 71 25 85 8 21 76 250 146 490 9 30 20 62 25 71 4 9 11 34 15 55 3
22 10 44 14 49 5 6 11 28 15 50 4 22 11 45 15 50 4 6 11 26 15 45 4 19 18 67
30 105 12 39 30 97 40 130 9 33 35 119 57 190 22 72 43 141 47 155 7 22 12 18
62 -60 30 -47 73 -114 95 -149 21 -35 46 -73 54 -86 8 -13 52 -83 98 -156 136
-218 190 -303 201 -316 6 -7 11 -17 11 -22 0 -5 6 -16 13 -23 6 -8 17 -23 24
-33 10 -17 87 -138 133 -211 8 -12 42 -66 75 -119 33 -53 67 -107 75 -120 8
-12 33 -51 54 -86 71 -115 165 -257 174 -263 4 -2 39 0 77 5 191 26 503 58
760 78 498 38 809 46 1250 30 399 -14 384 -14 391 -6 6 6 -24 95 -38 111 -4 6
-8 16 -8 24 0 8 -6 28 -14 45 -27 64 -76 185 -121 302 -25 66 -50 129 -55 140
-5 11 -23 55 -39 98 -17 42 -45 112 -62 155 -16 42 -35 88 -41 102 -28 67 -37
91 -67 170 -28 72 -69 175 -101 255 -5 11 -25 63 -45 115 -20 52 -40 104 -45
115 -9 19 -35 86 -100 253 -17 42 -35 85 -40 94 -6 10 -10 23 -10 29 0 6 -6
25 -14 42 -8 18 -29 68 -46 112 -18 44 -36 89 -40 100 -5 11 -43 108 -85 215
-96 244 -134 339 -145 365 -5 11 -19 45 -30 75 -11 30 -24 64 -29 75 -5 11
-16 38 -24 60 -8 22 -35 90 -60 150 -25 61 -53 133 -63 160 -10 28 -24 61 -31
75 -7 14 -13 31 -13 38 0 7 -4 20 -10 30 -9 17 -21 45 -55 132 -34 87 -46 115
-55 132 -6 10 -10 23 -10 29 0 6 -6 25 -14 42 -7 18 -23 57 -35 87 -12 30 -26
64 -31 75 -4 11 -29 74 -55 140 -25 66 -50 129 -55 140 -5 11 -19 45 -30 75
-11 30 -25 64 -30 75 -5 11 -30 74 -55 140 -25 66 -52 134 -59 150 -7 17 -22
53 -31 80 -10 28 -21 55 -25 60 -4 6 -15 33 -25 60 -9 28 -23 64 -30 80 -7 17
-20 50 -30 75 -10 25 -23 59 -30 75 -7 17 -21 53 -30 80 -10 28 -21 55 -25 60
-4 6 -15 33 -25 60 -9 28 -23 64 -30 80 -7 17 -20 50 -30 75 -10 25 -23 59
-30 75 -7 17 -21 53 -30 80 -10 28 -21 55 -25 60 -4 6 -15 33 -25 60 -9 28
-23 64 -30 80 -7 17 -22 55 -34 85 -24 61 -32 78 -55 132 -9 20 -16 40 -16 45
0 10 -22 60 -41 95 -5 10 -9 23 -9 29 0 6 -6 25 -14 42 -8 18 -29 68 -46 112
-18 44 -36 89 -41 100 -5 11 -25 63 -44 115 -37 100 -60 153 -75 182 -6 10
-10 23 -10 29 0 6 -6 25 -14 42 -8 18 -28 68 -46 112 -17 44 -38 94 -46 112
-8 17 -14 36 -14 42 0 6 -4 19 -10 29 -5 9 -23 51 -39 92 -75 193 -145 369
-161 405 -9 22 -23 56 -29 75 -12 32 -57 145 -86 215 -7 17 -21 53 -30 80 -10
28 -22 54 -27 60 -4 5 -8 15 -8 23 0 8 -6 28 -14 45 -8 18 -29 68 -46 112 -18
44 -52 128 -76 186 -24 59 -44 112 -44 118 0 6 -4 19 -10 29 -9 18 -26 57 -53
127 -36 94 -81 196 -88 201 -4 2 -15 -6 -24 -20z"/>
<path d="M18269 10886 c-2 -3 -99 -9 -214 -15 -116 -6 -253 -15 -305 -21 -445
-45 -609 -67 -627 -84 -9 -8 11 -47 82 -161 52 -82 122 -195 156 -250 34 -55
81 -129 104 -165 24 -36 83 -129 131 -208 49 -79 126 -203 172 -275 45 -73 97
-156 115 -185 17 -30 39 -64 47 -77 8 -13 40 -64 70 -112 30 -48 84 -133 119
-188 74 -113 83 -127 106 -172 9 -18 23 -37 31 -44 8 -6 14 -15 14 -20 0 -5
19 -37 43 -71 38 -56 246 -389 272 -437 6 -10 23 -36 37 -57 14 -22 56 -88 93
-149 124 -202 135 -220 200 -320 36 -55 94 -147 130 -205 36 -58 70 -112 75
-120 6 -8 57 -90 114 -182 57 -92 113 -180 125 -196 11 -17 21 -32 21 -35 0
-6 64 -105 78 -122 4 -5 11 -17 15 -25 4 -8 43 -71 87 -140 44 -69 121 -190
171 -270 49 -80 126 -201 169 -270 44 -69 123 -196 177 -283 54 -87 109 -176
123 -197 14 -22 49 -79 79 -127 30 -48 57 -90 60 -93 8 -6 28 -39 41 -65 6
-11 46 -76 90 -145 73 -114 180 -285 360 -575 37 -60 72 -114 77 -120 5 -5 12
-17 16 -25 4 -8 15 -27 25 -42 9 -15 53 -85 96 -155 105 -168 133 -206 141
-193 8 13 -33 133 -65 192 -6 10 -10 23 -10 30 -1 7 -9 31 -20 53 -11 22 -19
46 -20 53 0 7 -4 20 -10 30 -16 28 -57 125 -64 152 -4 14 -14 41 -22 60 -9 19
-19 44 -24 55 -4 11 -19 47 -31 80 -13 33 -27 64 -31 70 -4 5 -8 16 -8 25 0 8
-6 27 -14 41 -7 15 -28 67 -47 115 -18 49 -35 94 -39 99 -4 6 -17 39 -30 75
-13 36 -27 69 -32 75 -4 5 -8 15 -8 23 0 8 -6 28 -14 45 -8 18 -42 100 -74
182 -33 83 -64 161 -70 175 -6 14 -31 79 -57 145 -26 66 -50 129 -55 140 -11
25 -51 126 -83 210 -8 22 -25 65 -38 95 -12 30 -30 75 -39 100 -25 64 -119
301 -130 325 -5 11 -29 74 -55 140 -50 129 -71 180 -85 207 -6 10 -10 25 -10
34 0 9 -6 28 -14 42 -8 15 -47 110 -86 212 -40 102 -78 199 -85 215 -8 17 -34
84 -59 150 -26 66 -51 129 -56 140 -5 11 -30 74 -55 140 -54 139 -82 212 -95
240 -5 11 -23 56 -40 100 -17 44 -38 96 -46 115 -9 19 -19 44 -24 55 -5 11
-20 49 -33 85 -42 108 -283 719 -308 780 -6 14 -17 38 -25 53 -8 16 -14 33
-14 38 0 9 -78 214 -105 274 -7 17 -34 84 -59 150 -26 66 -51 129 -56 140 -5
11 -30 74 -55 140 -25 66 -49 129 -54 140 -5 11 -19 45 -31 75 -11 30 -25 64
-30 75 -5 11 -23 58 -41 105 -18 47 -37 91 -42 98 -7 9 -52 12 -162 12 -83 0
-154 -2 -156 -4z"/>
</g>
</svg>
